HIERARCHY
ROOT Hips
{
	OFFSET 0.000000 0.000000 0.000000
	CHANNELS 6 Xposition Yposition Zposition Zrotation Yrotation Xrotation 
	JOINT LHipJoint
	{
		OFFSET 0.000000 0.000000 0.000000
		CHANNELS 3 Zrotation Yrotation Xrotation
		JOINT LeftUpLeg
		{
			OFFSET 1.363060 -1.794630 0.839290
			CHANNELS 3 Zrotation Yrotation Xrotation
			JOINT LeftLeg
			{
				OFFSET 2.448110 -6.726130 0.000000
				CHANNELS 3 Zrotation Yrotation Xrotation
				JOINT LeftFoot
				{
					OFFSET 2.562200 -7.039590 0.000000
					CHANNELS 3 Zrotation Yrotation Xrotation
					JOINT LeftToeBase
					{
						OFFSET 0.157640 -0.433110 2.322550
						CHANNELS 3 Zrotation Yrotation Xrotation
						End Site
						{
							OFFSET 0.000000 0.000000 0.000000
						}
					}
				}
			}
		}
	}
	JOINT RHipJoint
	{
		OFFSET 0.000000 0.000000 0.000000
		CHANNELS 3 Zrotation Yrotation Xrotation
		JOINT RightUpLeg
		{
			OFFSET -1.305520 -1.794630 0.839290
			CHANNELS 3 Zrotation Yrotation Xrotation
			JOINT RightLeg
			{
				OFFSET -2.542530 -6.985550 0.000000
				CHANNELS 3 Zrotation Yrotation Xrotation
				JOINT RightFoot
				{
					OFFSET -2.568260 -7.056230 0.000000
					CHANNELS 3 Zrotation Yrotation Xrotation
					JOINT RightToeBase
					{
						OFFSET -0.164730 -0.452590 2.363150
						CHANNELS 3 Zrotation Yrotation Xrotation
						End Site
						{
							OFFSET 0.000000 0.000000 0.000000
						}
					}
				}
			}
		}
	}
	JOINT LowerBack
	{
		OFFSET 0.000000 0.000000 0.000000
		CHANNELS 3 Zrotation Yrotation Xrotation
		JOINT Spine
		{
			OFFSET 0.028270 2.035590 -0.193380
			CHANNELS 3 Zrotation Yrotation Xrotation
			JOINT Spine1
			{
				OFFSET 0.056720 2.048850 -0.042750
				CHANNELS 3 Zrotation Yrotation Xrotation
				JOINT Neck
				{
					OFFSET 0.000000 0.000000 0.000000
					CHANNELS 3 Zrotation Yrotation Xrotation
					JOINT Neck1
					{
						OFFSET -0.054170 1.746240 0.172020
						CHANNELS 3 Zrotation Yrotation Xrotation
						JOINT Head
						{
							OFFSET 0.104070 1.761360 -0.123970
							CHANNELS 3 Zrotation Yrotation Xrotation
							End Site
							{
								OFFSET 0.000000 0.000000 0.000000
							}
						}
					}
				}
				JOINT LeftShoulder
				{
					OFFSET 0.000000 0.000000 0.000000
					CHANNELS 3 Zrotation Yrotation Xrotation
					JOINT LeftArm
					{
						OFFSET 3.362410 1.200890 -0.311210
						CHANNELS 3 Zrotation Yrotation Xrotation
						JOINT LeftForeArm
						{
							OFFSET 4.983000 -0.000000 -0.000000
							CHANNELS 3 Zrotation Yrotation Xrotation
							JOINT LeftHand
							{
								OFFSET 3.483560 -0.000000 -0.000000
								CHANNELS 3 Zrotation Yrotation Xrotation
								JOINT LeftFingerBase
								{
									OFFSET 0.000000 0.000000 0.000000
									CHANNELS 3 Zrotation Yrotation Xrotation
									JOINT LeftHandIndex1
									{
										OFFSET 0.715260 -0.000000 -0.000000
										CHANNELS 3 Zrotation Yrotation Xrotation
										End Site
										{
											OFFSET 0.000000 0.000000 0.000000
										}
									}
								}
								JOINT LThumb
								{
									OFFSET 0.000000 0.000000 0.000000
									CHANNELS 3 Zrotation Yrotation Xrotation
									End Site
									{
										OFFSET 0.000000 0.000000 0.000000
									}
								}
							}
						}
					}
				}
				JOINT RightShoulder
				{
					OFFSET 0.000000 0.000000 0.000000
					CHANNELS 3 Zrotation Yrotation Xrotation
					JOINT RightArm
					{
						OFFSET -3.136600 1.374050 -0.404650
						CHANNELS 3 Zrotation Yrotation Xrotation
						JOINT RightForeArm
						{
							OFFSET -5.241900 -0.000000 -0.000000
							CHANNELS 3 Zrotation Yrotation Xrotation
							JOINT RightHand
							{
								OFFSET -3.444170 -0.000000 -0.000000
								CHANNELS 3 Zrotation Yrotation Xrotation
								JOINT RightFingerBase
								{
									OFFSET 0.000000 0.000000 0.000000
									CHANNELS 3 Zrotation Yrotation Xrotation
									JOINT RightHandIndex1
									{
										OFFSET -0.622530 -0.000000 -0.000000
										CHANNELS 3 Zrotation Yrotation Xrotation
										End Site
										{
											OFFSET 0.000000 0.000000 0.000000
										}
									}
								}
								JOINT RThumb
								{
									OFFSET 0.000000 0.000000 0.000000
									CHANNELS 3 Zrotation Yrotation Xrotation
									End Site
									{
										OFFSET 0.000000 0.000000 0.000000
									}
								}
							}
						}
					}
				}
			}
		}
	}
}
MOTION
Frames: 11
Frame Time: 0.008333
21.365456 17.948023 -1.371231 -176.456899 50.696759 -169.355306 -8.164288 -3.115706 0.887180 -6.670609 -2.934867 -10.674345 0.539866 9.518563 24.718830 -1.937027 8.823220 -7.483568 3.558100 11.547900 34.150700 7.162258 2.407357 0.953613 11.162872 2.900225 -6.535246 0.350280 -6.580593 14.925476 2.935001 -14.006554 -2.128599 -1.014600 6.408500 -17.974300 -0.439234 0.867740 -6.515451 -0.178780 0.719593 -3.006013 2.019908 0.803041 3.715503 -2.644302 2.232360 -2.719991 7.505716 1.851327 -3.636274 0.281100 0.588300 0.053500 -8.452735 -4.605818 0.021401 -78.045817 -7.911717 14.470089 2.959457 -10.544245 -0.904300 -1.703226 -1.924141 19.153156 15.630668 41.929089 11.728100 -7.125000 0.000000 0.000000 -35.614300 72.644700 -24.200900 13.798340 4.129273 -1.140325 72.132452 2.474668 18.094555 -7.200783 12.483911 -1.817092 0.344858 -2.940296 19.907040 -24.033597 19.969786 -10.344100 7.125000 0.000000 0.000000 2.225400 -5.241500 2.014300 
21.364249 17.946377 -1.375949 -176.587723 50.762612 -169.524122 -8.182552 -3.106619 0.904653 -6.784042 -2.974633 -10.521022 0.516241 9.487273 24.606418 -1.955395 8.877068 -7.521159 3.546100 11.530600 34.091000 7.152541 2.399854 0.939042 11.058481 3.159097 -6.424361 0.338046 -6.653866 15.119827 2.975122 -14.125568 -2.316378 -0.818700 5.773400 -16.128500 -0.571157 0.868022 -6.427460 -0.182619 0.729634 -2.974291 2.082903 0.800036 3.756700 -2.675291 2.169453 -2.887727 7.440292 1.777755 -3.542102 0.262000 0.557200 0.111500 -8.449267 -4.603484 0.022762 -78.080471 -8.028197 13.951775 2.909467 -10.450149 -0.895974 -1.717196 -1.902184 19.696370 15.578962 41.885765 11.679000 -7.125000 0.000000 0.000000 -35.562400 72.588800 -24.122000 13.803712 4.140009 -1.131873 72.067845 2.565266 18.341878 -7.185452 12.465886 -1.818392 0.362793 -2.961728 19.613035 -24.184870 20.150902 -10.504100 7.125000 0.000000 0.000000 2.148600 -4.995400 1.954800 
21.357445 17.947036 -1.386045 -177.152047 50.882492 -169.934185 -8.228282 -3.120928 0.910913 -7.192352 -3.002553 -10.464629 0.492187 9.457309 24.506085 -1.940228 8.843378 -7.599001 3.634700 11.657800 34.531900 7.122695 2.399359 0.937678 10.603647 3.072943 -6.562967 0.322655 -6.703833 15.277115 2.943200 -13.967763 -2.402683 -0.959400 6.237000 -17.473700 -0.949867 0.882384 -6.458694 -0.221541 0.778774 -2.953861 2.200972 0.815775 3.826316 -2.701175 2.209260 -2.823228 7.412504 1.827746 -3.755362 0.257300 0.570800 0.034000 -8.444722 -4.617066 0.032671 -78.209549 -8.180960 13.434048 2.878696 -10.379072 -0.889548 -1.722902 -1.877441 20.339216 15.317345 41.819799 11.465600 -7.125000 0.000000 0.000000 -35.702500 72.438100 -24.112200 13.801271 4.127794 -1.131257 71.988642 2.587509 18.795293 -7.207453 12.491027 -1.822763 0.424308 -2.966550 19.221470 -24.515322 20.013602 -10.612500 7.125000 0.000000 0.000000 1.899500 -5.080400 1.724800 
21.352398 17.948352 -1.395592 -177.367661 50.950502 -170.061241 -8.240418 -3.133869 0.915207 -7.366763 -2.849378 -10.532174 0.490134 9.441794 24.464651 -1.867281 8.647702 -7.524737 3.731100 11.793700 35.005900 7.109832 2.403373 0.935270 10.393185 3.024292 -6.660632 0.314731 -6.720386 15.341816 2.891643 -13.757645 -2.431798 -0.912600 6.087000 -17.037100 -1.084549 0.878090 -6.529319 -0.243289 0.785902 -2.946981 2.218054 0.816600 3.881458 -2.568599 2.188656 -2.852330 7.245425 1.786847 -3.737051 0.180700 0.548700 0.039500 -8.445005 -4.620308 0.037581 -78.214049 -8.242981 13.171381 2.862805 -10.344880 -0.886107 -1.726248 -1.866546 20.608974 15.222421 41.756815 11.380800 -7.125000 0.000000 0.000000 -35.664900 72.354100 -24.022900 13.805935 4.124908 -1.126528 71.951202 2.628512 19.148180 -7.193144 12.470179 -1.813993 0.453543 -2.959204 19.023993 -24.588028 19.849558 -10.576300 7.125000 0.000000 0.000000 1.822700 -5.252800 1.649000 
21.346582 17.950437 -1.402724 -177.285742 50.963298 -169.939317 -8.228686 -3.143885 0.911643 -7.347384 -2.634873 -10.690785 0.501291 9.442803 24.479303 -1.822232 8.521794 -7.372664 3.690700 11.737000 34.807900 7.112811 2.409218 0.931298 10.403217 3.025300 -6.712152 0.315280 -6.702634 15.303053 2.862706 -13.662458 -2.323899 -0.910000 6.078600 -17.012700 -0.983458 0.899968 -6.563384 -0.241136 0.808270 -2.945373 2.168430 0.828591 3.913570 -2.669705 2.118564 -2.972465 7.342580 1.713616 -3.693387 0.226600 0.517100 0.076800 -8.445227 -4.612686 0.034735 -78.238151 -8.325092 12.969775 2.825598 -10.273975 -0.878259 -1.735284 -1.851026 20.820203 15.307614 41.643347 11.421500 -7.125000 0.000000 0.000000 -35.296100 72.294400 -23.713300 13.804297 4.136320 -1.125292 71.920326 2.662487 19.064100 -7.203682 12.491967 -1.822520 0.435613 -2.970074 19.143917 -24.589688 20.004541 -10.647000 7.125000 0.000000 0.000000 1.847100 -5.073200 1.677400 
21.339120 17.950328 -1.407772 -177.159425 50.960836 -169.829749 -8.212889 -3.148228 0.908340 -7.296022 -2.458683 -10.816327 0.524253 9.469201 24.565835 -1.760977 8.354459 -7.254322 3.655000 11.686600 34.632000 7.118636 2.405428 0.932532 10.471409 3.084736 -6.625344 0.329765 -6.647804 15.135945 2.921227 -13.912322 -2.139603 -1.017400 6.417100 -17.999600 -0.839881 0.941750 -6.459745 -0.229772 0.851129 -2.949755 2.115206 0.852630 3.855005 -2.750376 2.034951 -3.144688 7.401728 1.622908 -3.600099 0.254700 0.479300 0.142800 -8.441744 -4.603650 0.025487 -78.275048 -8.351586 13.117019 2.825643 -10.270605 -0.874717 -1.731401 -1.841531 20.730253 15.334376 41.405993 11.392900 -7.125000 0.000000 0.000000 -34.724000 72.117400 -23.174700 13.803050 4.151910 -1.126223 71.809527 2.635822 19.252699 -7.244819 12.559631 -1.842547 0.468056 -2.991677 19.010316 -24.945466 20.098280 -10.872500 7.125000 0.000000 0.000000 1.619100 -4.884700 1.475900 
21.335718 17.949011 -1.412271 -176.766994 50.939624 -169.594737 -8.180462 -3.137561 0.916713 -7.061411 -2.285486 -10.851263 0.555601 9.501073 24.668527 -1.630715 8.002754 -7.125478 3.709900 11.764000 34.902000 7.135817 2.391913 0.927269 10.742012 3.394461 -6.326629 0.351891 -6.592768 14.942648 3.041157 -14.398685 -2.030707 -1.011500 6.399000 -17.946500 -0.575274 0.965993 -6.293797 -0.191202 0.859121 -2.950034 2.054853 0.863035 3.764468 -2.805750 2.047921 -3.194839 7.501746 1.651788 -3.583728 0.293900 0.496600 0.164800 -8.438691 -4.595692 0.014518 -78.233780 -8.228334 13.789827 2.904107 -10.415851 -0.885217 -1.709004 -1.857395 20.099806 15.292556 41.208530 11.321900 -7.125000 0.000000 0.000000 -34.347200 71.950900 -22.786600 13.806576 4.155804 -1.127969 71.641471 2.533855 20.242787 -7.310760 12.662284 -1.861813 0.571381 -2.998819 18.249436 -25.514860 19.965616 -11.103800 7.125000 0.000000 0.000000 1.206800 -4.913400 1.099300 
21.333194 17.950328 -1.418197 -176.455941 50.918936 -169.397866 -8.160854 -3.124258 0.923645 -6.879016 -2.278753 -10.823902 0.570031 9.520110 24.727460 -1.576429 7.858637 -7.140199 3.716300 11.773000 34.933500 7.156029 2.376862 0.919297 10.942850 3.794863 -6.062664 0.368066 -6.559220 14.818001 3.135580 -14.777163 -1.976940 -1.056900 6.536800 -18.350000 -0.420088 0.986852 -6.226586 -0.183939 0.874285 -2.956347 1.989857 0.877283 3.696868 -2.881040 2.179878 -3.004200 7.873534 1.836945 -3.775066 0.426700 0.582900 0.082400 -8.443150 -4.591638 0.007723 -78.048584 -7.959932 14.978728 3.053078 -10.697209 -0.911445 -1.669917 -1.909957 18.978656 15.118433 41.280747 11.209700 -7.125000 0.000000 0.000000 -34.745700 71.958000 -23.074200 13.794844 4.138766 -1.145318 71.708614 2.328673 20.955789 -7.453486 12.850698 -1.891779 0.625787 -2.969685 17.472972 -25.591260 19.870894 -11.087799 7.125000 0.000000 0.000000 1.139800 -5.026300 1.035800 
21.322331 17.950986 -1.426866 -176.580778 50.908095 -169.438506 -8.171680 -3.131063 0.916594 -7.008788 -2.288904 -10.924832 0.564947 9.523411 24.736887 -1.658397 8.078001 -7.175972 3.605300 11.615800 34.385900 7.162616 2.368721 0.919900 10.794056 4.011970 -6.043655 0.373068 -6.547458 14.785326 3.188452 -14.966863 -1.947066 -1.011400 6.398700 -17.945800 -0.486792 0.962794 -6.226823 -0.227660 0.851377 -2.993132 1.910343 0.871032 3.587723 -2.705654 2.199075 -2.907633 7.975550 1.848907 -3.744659 0.426900 0.589200 0.079200 -8.449909 -4.585894 0.001191 -77.859762 -7.682133 15.771886 3.167301 -10.910315 -0.933310 -1.638085 -1.958943 18.156657 14.900864 41.488210 11.091500 -7.125000 0.000000 0.000000 -35.496400 72.053900 -23.679600 13.772467 4.127699 -1.170688 71.947261 2.117345 21.034920 -7.612493 13.052304 -1.926768 0.595580 -2.933445 17.087767 -25.178625 20.012593 -10.927200 7.125000 0.000000 0.000000 1.449000 -4.981000 1.318200 
21.307407 17.950766 -1.437290 -177.024774 50.899605 -169.664038 -8.205753 -3.153540 0.903650 -7.341262 -2.312100 -11.077711 0.551965 9.508788 24.697899 -1.715954 8.230383 -7.165041 3.590900 11.595100 34.314200 7.151774 2.365658 0.924601 10.411328 4.047802 -6.193183 0.367088 -6.564962 14.853187 3.210134 -15.011839 -1.971596 -0.906900 6.068700 -16.983900 -0.718894 0.893304 -6.234342 -0.263911 0.777105 -3.038348 1.921724 0.838840 3.468522 -2.499628 2.266596 -2.658869 7.826863 1.903247 -3.929088 0.346900 0.601000 -0.021100 -8.452173 -4.603502 0.006078 -77.871021 -7.569561 15.786173 3.188389 -10.947935 -0.938957 -1.635706 -1.968456 17.997613 14.962037 41.597269 11.158800 -7.125000 0.000000 0.000000 -35.674200 72.160900 -23.886200 13.755351 4.106227 -1.190600 71.959213 1.946080 21.422335 -7.755356 13.248957 -1.959764 0.550169 -2.899960 16.733917 -24.670428 20.229949 -10.751700 7.125000 0.000000 0.000000 1.834800 -4.868100 1.673300 
21.302798 17.952961 -1.444533 -177.184829 50.881150 -169.745742 -8.216770 -3.168119 0.899419 -7.457862 -2.214685 -11.141002 0.542773 9.484067 24.627819 -1.726840 8.255342 -7.043053 3.640700 11.666300 34.561400 7.133920 2.378092 0.927961 10.297963 3.731596 -6.400885 0.351874 -6.601687 14.979414 3.133727 -14.706252 -2.032731 -0.942900 6.184600 -17.320900 -0.910434 0.830724 -6.260599 -0.229430 0.701341 -3.041615 2.090449 0.799451 3.474536 -2.415868 2.381015 -2.471254 7.629349 2.028652 -4.204978 0.271000 0.644400 -0.141700 -8.436902 -4.625043 0.021346 -78.056144 -7.692484 14.949886 3.097112 -10.783778 -0.924659 -1.665320 -1.933448 18.696864 15.204498 41.593925 11.337000 -7.125000 0.000000 0.000000 -35.355000 72.234900 -23.711900 13.763131 4.081024 -1.194520 71.721671 1.861553 22.383346 -7.821375 13.356398 -1.979193 0.582375 -2.904124 16.342895 -24.859373 20.329107 -10.890899 7.125000 0.000000 0.000000 1.721500 -4.718700 1.574800 
